. 
  
http://www.torrentday.com/        :     The Hottest Private Tracker On The Net!!!
 
http://www.torrentday.com          :     Once & For all ;)


               www . TorrentDay . Com 

(((((((((((((= Enjoy No RAR releases =))))))))))))))))))))


...................................NFO:....................................

.[img]http://img59.imageshack.us/img59/9317/burlesquebluray.jpg[/img]


Burlesque 2010 BDRip XVID AC3 HQ Hive-CM8



[b]Thx Hive

CM8 Doing It Right The First Time :D

Why download a touched up rip of a rip BRrip
Get the real deal BDRip
Enjoy

Source US Bluray

Video: 720x304 @bitrate 1600 2pass
Audio: English AC3 5.1 @448
Sample: yes included
Subs: yes english in srt /subs[/b]
 
http://www.imdb.com/title/tt1126591/


General
Complete name                    : Burlesque.2010.BDRip.XVID.AC3.HQ.Hive-CM8.avi
Format                           : AVI
Format/Info                      : Audio Video Interleave
File size                        : 1.71 GiB
Duration                         : 1h 58mn
Overall bit rate                 : 2 057 Kbps
Writing application              : Nandub v1.0rc2
Writing library                  : Nandub build 1853/release

Video
ID                               : 0
Format                           : MPEG-4 Visual
Format profile                   : Advanced Simple@L5
Format settings, BVOP            : Yes
Format settings, QPel            : Yes
Format settings, GMC             : No warppoints
Format settings, Matrix          : Default (H.263)
Muxing mode                      : Packed bitstream
Codec ID                         : XVID
Codec ID/Hint                    : XviD
Duration                         : 1h 58mn
Bit rate                         : 1 600 Kbps
Width                            : 720 pixels
Height                           : 304 pixels
Display aspect ratio             : 2.40:1
Frame rate                       : 23.976 fps
Color space                      : YUV
Chroma subsampling               : 4:2:0
Bit depth                        : 8 bits
Scan type                        : Progressive
Bits/(Pixel*Frame)               : 0.305
Stream size                      : 1.33 GiB (78%)
Writing library                  : XviD 1.2.1 (UTC 2008-12-04)

Audio
ID                               : 1
Format                           : AC-3
Format/Info                      : Audio Coding 3
Mode extension                   : CM (complete main)
Codec ID                         : 2000
Duration                         : 1h 58mn
Bit rate mode                    : Constant
Bit rate                         : 448 Kbps
Channel(s)                       : 6 channels
Channel positions                : Front: L C R, Side: L R, LFE
Sampling rate                    : 48.0 KHz
Bit depth                        : 16 bits
Stream size                      : 381 MiB (22%)
Alignment                        : Split accross interleaves
Interleave, duration             : 42 ms (1.00 video frame)
Interleave, preload duration     : 500 ms



Cher                 : Tess  
Christina Aguilera   : Ali  
Eric Dane         : Marcus  
Cam Gigandet     : Jack  
Julianne Hough   : Georgia  
Alan Cumming     : Alexis  
Peter Gallagher  : Vince  
Kristen Bell     : Nikki  


A small-town girl ventures to Los Angeles and finds her
place in a neo-burlesque club run by a former dancer.  



[img]http://img148.imageshack.us/img148/7600/bbbubuuu.png[/img]
[img]http://img130.imageshack.us/img130/9084/bbbuuu.png[/img]
[img]http://img201.imageshack.us/img201/7686/bbububbubububuuu.png[/img]
[img]http://img59.imageshack.us/img59/316/bbububbububuuu.png[/img]
[img]http://img190.imageshack.us/img190/9548/bbuu.png[/img]
[img]http://img822.imageshack.us/img822/7323/70737484.png[/img]
[img]http://img46.imageshack.us/img46/4626/bbbububbubububuuu.png[/img]
[img]http://img202.imageshack.us/img202/6746/bbbububuuu.png[/img]




Greetz

iNK,LUSi,,MAGNET,CLASSiFiED,THC,LEGi0N,T0XiC,IMAGiNE,ViSiON,WBZ,FLAWL3SS,NOVA
Vik,Rapeseed,D2U,SAFC,goldadvance,MEMORY100,KaN1vE,Unevano,Pinnz,Wayne,Mr Hive
and all P2P groups 
Great Work Guys :D